<?xml version="1.0" encoding="utf-8"?>
<!-- Generator: Adobe Illustrator 15.1.0, SVG Export Plug-In . SVG Version: 6.00 Build 0)  -->
<!DOCTYPE svg PUBLIC "-//W3C//DTD SVG 1.1//EN" "http://www.w3.org/Graphics/SVG/1.1/DTD/svg11.dtd">
<svg version="1.1" xmlns="http://www.w3.org/2000/svg" xmlns:xlink="http://www.w3.org/1999/xlink" x="0px" y="0px" width="500px"
	 height="500px" viewBox="0 0 500 500" enable-background="new 0 0 500 500" xml:space="preserve">
<g id="Layer_2">
	<circle fill="#07537F" cx="-302.902" cy="249.152" r="249.152"/>
	<circle fill="#07537F" cx="-302.902" cy="800.53" r="249.152"/>
	<circle fill="#07537F" cx="249.152" cy="800.53" r="249.152"/>
	<circle fill="#07537F" cx="249.152" cy="249.152" r="249.152"/>
	<circle fill="#07537F" cx="813.04" cy="800.53" r="249.152"/>
</g>
<g id="Layer_1">
	<g>
		<polygon fill="#FFFFFF" points="-186.605,134.57 -184.178,133.113 -212.823,104.467 -337.604,228.762 -393.44,172.927 
			-422.087,201.088 -337.604,285.569 		"/>
	</g>
	<path fill="#FFFFFF" d="M269.675,153.407h-52.747l25.757-25.757l-20.312-20.313l-60.439,60.437l60.439,60.437l20.312-20.313
		l-25.757-25.757h52.747c19.796,0,35.914,16.11,35.914,35.914c0,19.803-16.118,35.913-35.914,35.913h-57.463v28.732h57.463
		c35.648,0,64.646-28.998,64.646-64.646C334.32,182.404,305.323,153.407,269.675,153.407z"/>
	<path fill="#FFFFFF" d="M-271.408,760.936c11.332-5.079,19.733-13.872,19.733-28.719v-0.585c0-8.793-3.322-16.021-8.597-21.296
		c-4.884-4.884-11.722-8.4-20.318-10.159v-24.029h-26.374v22.662h-10.159v-22.662h-26.178v22.662h-17.778v130.502h17.778v22.663
		h26.178v-22.663h10.159v22.663h26.374v-23.834c22.077-3.712,34.971-16.021,34.971-34.774v-0.391
		C-245.619,775.392-255.778,766.601-271.408,760.936z M-327.281,727.138h24.42c11.136,0,16.997,4.103,16.997,11.721v0.392
		c0,8.01-6.643,11.917-17.973,11.917h-23.444V727.138z M-280.394,788.677c0,8.01-6.447,12.309-17.974,12.309h-28.914v-25.007h28.719
		c12.503,0,18.364,4.884,18.364,12.111v0.587H-280.394z"/>
	<g>
		<g id="XMLID_1_">
			<g>
				<rect x="299.512" y="777.803" fill="#07537F" width="32.037" height="11.916"/>
				<path fill="#07537F" d="M323.344,801.635v29.782c0,3.295-2.671,5.958-5.958,5.958H174.409c-3.287,0-5.958-2.663-5.958-5.958
					V724.549c0-3.407,0.416-5.183,2.647-5.91c0.871-0.28,2.031-0.408,3.551-0.408h142.736c1.647,0,3.135,0.664,4.214,1.744
					c1.08,1.079,1.744,2.559,1.744,4.206v41.706h-29.782c-3.287,0-5.958,2.671-5.958,5.958v23.824c0,1.647,0.664,3.135,1.743,4.215
					c1.072,1.079,2.567,1.751,4.215,1.751h26.119H323.344z"/>
				<path fill="#FFFFFF" d="M310.779,673.438c-0.424-0.392-1.039-0.527-1.791-0.407
					C309.748,672.902,310.364,673.046,310.779,673.438z"/>
				<path fill="#07537F" d="M308.437,673.158c0.191-0.057,0.376-0.097,0.552-0.128c0.752-0.12,1.367,0.016,1.791,0.407
					c0.416,0.384,0.648,1.008,0.648,1.863v31.014H198.642L308.437,673.158z"/>
				<path fill="#FFFFFF" d="M174.409,837.375h142.977c3.287,0,5.958-2.663,5.958-5.958v-29.782v-0.008h-3.655h-26.127
					c-1.647,0-3.135-0.664-4.215-1.743c-1.079-1.08-1.743-2.567-1.743-4.215v-23.824c0-3.287,2.671-5.958,5.958-5.958h29.782
					v-41.706c0-1.647-0.664-3.127-1.744-4.206c-1.071-1.08-2.566-1.752-4.214-1.752H174.657c-1.527,0-2.688,0.128-3.559,0.416
					c-2.231,0.728-2.647,2.503-2.647,5.91v106.868C168.451,834.712,171.122,837.375,174.409,837.375z M343.465,771.845v23.832
					c0,3.295-2.671,5.958-5.958,5.958h-2.247v35.74c0,6.582-5.335,11.916-11.916,11.916H168.451
					c-6.573,0-11.916-5.343-11.916-11.916V718.223c0-7.934,0.648-12.107,8.693-14.587l146.199-44.985
					c5.27-1.399,11.916,1.264,11.916,8.382v39.274c6.581,0.008,11.916,5.343,11.916,11.916v47.664h2.247
					C340.794,765.887,343.465,768.558,343.465,771.845z M331.549,789.719v-11.916h-32.037v11.916H331.549z M311.428,706.314v-31.014
					c0-0.855-0.232-1.479-0.648-1.863c-0.415-0.392-1.031-0.535-1.791-0.407c-0.176,0.031-0.36,0.071-0.552,0.128l-109.795,33.156
					H311.428z"/>
			</g>
			<g>
				<path fill="none" stroke="#FFFFFF" stroke-width="6" stroke-miterlimit="10" d="M321.6,719.975
					c-1.079-1.08-2.566-1.744-4.214-1.744H174.649c-1.52,0-2.68,0.128-3.551,0.408"/>
				<path fill="none" stroke="#FFFFFF" stroke-width="6" stroke-miterlimit="10" d="M323.344,801.635h-3.663h-26.119
					c-1.647,0-3.143-0.672-4.215-1.751"/>
				<path fill="none" stroke="#FFFFFF" stroke-width="6" stroke-miterlimit="10" d="M337.507,765.887h-2.247v-47.664
					c0-6.573-5.335-11.908-11.916-11.916v-39.274c0-7.118-6.646-9.781-11.916-8.382l-146.199,44.985
					c-8.045,2.479-8.693,6.653-8.693,14.587v119.152c0,6.573,5.343,11.916,11.916,11.916h154.893
					c6.581,0,11.916-5.334,11.916-11.916v-35.74h2.247c3.287,0,5.958-2.663,5.958-5.958v-23.832
					C343.465,768.558,340.794,765.887,337.507,765.887z"/>
				<path fill="none" stroke="#FFFFFF" stroke-width="6" stroke-miterlimit="10" d="M310.779,673.438
					c0.416,0.384,0.648,1.008,0.648,1.863v31.014H198.642l109.795-33.156c0.191-0.057,0.376-0.097,0.552-0.128
					C309.74,672.91,310.355,673.046,310.779,673.438z"/>
				<path fill="none" stroke="#FFFFFF" stroke-width="6" stroke-miterlimit="10" d="M323.344,801.635v29.782
					c0,3.295-2.671,5.958-5.958,5.958H174.409c-3.287,0-5.958-2.663-5.958-5.958V724.549c0-3.407,0.416-5.183,2.647-5.91
					c0.871-0.288,2.031-0.416,3.559-0.416h142.729c1.647,0,3.143,0.672,4.214,1.752c1.08,1.079,1.744,2.559,1.744,4.206v41.706
					h-29.782c-3.287,0-5.958,2.671-5.958,5.958v23.824c0,1.647,0.664,3.135,1.743,4.215c1.08,1.079,2.567,1.743,4.215,1.743h26.127
					h3.655V801.635z"/>
				
					<rect x="299.512" y="777.803" fill="none" stroke="#FFFFFF" stroke-width="6" stroke-miterlimit="10" width="32.037" height="11.916"/>
			</g>
		</g>
	</g>
	<g>
		<path fill="#FFFFFF" stroke="#FFFFFF" stroke-width="6" stroke-miterlimit="10" d="M896.742,689.65H729.689
			c-13.923,0-24.988,11.064-24.988,24.986v108.87c0,13.922,11.065,24.987,24.988,24.987h166.696
			c13.92,0,24.986-11.065,24.986-24.987v-108.87C921.729,700.715,910.306,689.65,896.742,689.65z M729.689,703.928h166.696
			c1.07,0,2.142,0,3.212,0.357l-86.382,66.393l-86.383-66.393C727.903,703.928,728.975,703.928,729.689,703.928z M907.45,823.15
			c0,6.068-4.64,10.708-10.708,10.708H729.689c-6.069,0-10.709-4.64-10.709-10.708V716.064l94.235,72.462l94.234-72.104V823.15z"/>
	</g>
	<text transform="matrix(1 0 0 1 -411.7676 368.002)" fill="#FFFFFF" font-family="'OpenSans-Bold'" font-size="46">CONFIRM</text>
	<text transform="matrix(1 0 0 1 154.5352 368.002)" fill="#FFFFFF" font-family="'OpenSans-Bold'" font-size="46">REFUND</text>
	<text transform="matrix(1 0 0 1 -384.7676 919.3799)" fill="#FFFFFF" font-family="'OpenSans-Bold'" font-size="46">INVEST</text>
	<text transform="matrix(1 0 0 1 158.2871 919.3799)" fill="#FFFFFF" font-family="'OpenSans-Bold'" font-size="46">WALLET</text>
	<text transform="matrix(1 0 0 1 706.1748 919.3799)" fill="#FFFFFF" font-family="'OpenSans-Bold'" font-size="46">REGISTER</text>
	<g>
		<polygon fill="#07537F" points="-186.605,-1006.428 -184.178,-1007.885 -212.823,-1036.531 -337.604,-912.236 -393.44,-968.071 
			-422.087,-939.91 -337.604,-855.429 		"/>
	</g>
	<text transform="matrix(1 0 0 1 -411.7676 -772.9961)" fill="#07537F" font-family="'OpenSans-Bold'" font-size="46">CONFIRM</text>
	<path fill="#07537F" d="M269.675-987.591h-52.747l25.757-25.757l-20.312-20.313l-60.439,60.437l60.439,60.437l20.312-20.313
		l-25.757-25.757h52.747c19.796,0,35.914,16.11,35.914,35.914c0,19.803-16.118,35.913-35.914,35.913h-57.463v28.732h57.463
		c35.648,0,64.646-28.998,64.646-64.646C334.32-958.594,305.323-987.591,269.675-987.591z"/>
	<text transform="matrix(1 0 0 1 154.5352 -772.9961)" fill="#07537F" font-family="'OpenSans-Bold'" font-size="46">REFUND</text>
	<circle fill="none" stroke="#07537F" stroke-width="23" stroke-miterlimit="10" cx="-302.902" cy="-338.622" r="238.376"/>
	<path fill="#07537F" d="M-271.408-378.325c11.332-5.079,19.733-13.872,19.733-28.719v-0.585c0-8.793-3.322-16.021-8.597-21.296
		c-4.884-4.884-11.722-8.4-20.318-10.159v-24.029h-26.374v22.662h-10.159v-22.662h-26.178v22.662h-17.778v130.502h17.778v22.663
		h26.178v-22.663h10.159v22.663h26.374v-23.834c22.077-3.712,34.971-16.021,34.971-34.774v-0.391
		C-245.619-363.869-255.778-372.66-271.408-378.325z M-327.281-412.123h24.42c11.136,0,16.997,4.103,16.997,11.721v0.392
		c0,8.01-6.643,11.917-17.973,11.917h-23.444V-412.123z M-280.394-350.584c0,8.01-6.447,12.309-17.974,12.309h-28.914v-25.007
		h28.719c12.503,0,18.364,4.884,18.364,12.111v0.587H-280.394z"/>
	<text transform="matrix(1 0 0 1 -384.7676 -219.8809)" fill="#07537F" font-family="'OpenSans-Bold'" font-size="46">INVEST</text>
	<g>
		<g id="XMLID_2_">
			<g>
				<rect x="299.512" y="-361.455" fill="#FFFFFF" width="32.037" height="11.916"/>
				<path fill="#FFFFFF" d="M323.344-337.623v29.781c0,3.295-2.671,5.958-5.958,5.958H174.409c-3.287,0-5.958-2.663-5.958-5.958
					V-414.71c0-3.406,0.416-5.182,2.647-5.91c0.871-0.279,2.031-0.407,3.551-0.407h142.736c1.647,0,3.135,0.663,4.214,1.743
					c1.08,1.08,1.744,2.56,1.744,4.207v41.706h-29.782c-3.287,0-5.958,2.671-5.958,5.958v23.823c0,1.647,0.664,3.136,1.743,4.215
					c1.072,1.08,2.567,1.752,4.215,1.752h26.119H323.344z"/>
				<path fill="#07537F" d="M308.988-466.229c0.76-0.128,1.376,0.016,1.791,0.408C310.355-466.213,309.74-466.349,308.988-466.229z"
					/>
				<path fill="#FFFFFF" d="M308.988-466.229c0.752-0.12,1.367,0.016,1.791,0.408c0.416,0.384,0.648,1.008,0.648,1.863v31.014
					H198.642l109.795-33.157C308.628-466.156,308.812-466.196,308.988-466.229z"/>
				<path fill="#07537F" d="M174.409-301.884h142.977c3.287,0,5.958-2.663,5.958-5.958v-29.781v-0.009h-3.655h-26.127
					c-1.647,0-3.135-0.663-4.215-1.743c-1.079-1.079-1.743-2.567-1.743-4.215v-23.823c0-3.287,2.671-5.958,5.958-5.958h29.782
					v-41.706c0-1.647-0.664-3.127-1.744-4.207c-1.071-1.08-2.566-1.751-4.214-1.751H174.657c-1.527,0-2.688,0.128-3.559,0.415
					c-2.231,0.729-2.647,2.504-2.647,5.91v106.868C168.451-304.547,171.122-301.884,174.409-301.884z M343.465-367.413v23.832
					c0,3.294-2.671,5.958-5.958,5.958h-2.247v35.739c0,6.582-5.335,11.916-11.916,11.916H168.451
					c-6.573,0-11.916-5.342-11.916-11.916v-119.151c0-7.934,0.648-12.108,8.693-14.588l146.199-44.984
					c5.27-1.399,11.916,1.264,11.916,8.381v39.275c6.581,0.008,11.916,5.342,11.916,11.916v47.664h2.247
					C340.794-373.371,343.465-370.7,343.465-367.413z M331.549-349.539v-11.916h-32.037v11.916H331.549z M311.428-432.943v-31.014
					c0-0.855-0.232-1.479-0.648-1.863c-0.415-0.393-1.031-0.536-1.791-0.408c-0.176,0.032-0.36,0.072-0.552,0.128l-109.795,33.157
					H311.428z"/>
			</g>
			<g>
				<path fill="none" stroke="#07537F" stroke-width="7" stroke-miterlimit="10" d="M310.779-465.82
					c-0.415-0.393-1.031-0.536-1.791-0.408"/>
				<path fill="none" stroke="#07537F" stroke-width="7" stroke-miterlimit="10" d="M321.6-419.284
					c-1.079-1.08-2.566-1.743-4.214-1.743H174.649c-1.52,0-2.68,0.128-3.551,0.407"/>
				<path fill="none" stroke="#07537F" stroke-width="7" stroke-miterlimit="10" d="M323.344-337.623h-3.663h-26.119
					c-1.647,0-3.143-0.672-4.215-1.752"/>
				<path fill="none" stroke="#07537F" stroke-width="7" stroke-miterlimit="10" d="M337.507-373.371h-2.247v-47.664
					c0-6.574-5.335-11.908-11.916-11.916v-39.275c0-7.117-6.646-9.78-11.916-8.381l-146.199,44.984
					c-8.045,2.479-8.693,6.654-8.693,14.588v119.151c0,6.574,5.343,11.916,11.916,11.916h154.893
					c6.581,0,11.916-5.334,11.916-11.916v-35.739h2.247c3.287,0,5.958-2.664,5.958-5.958v-23.832
					C343.465-370.7,340.794-373.371,337.507-373.371z"/>
				<path fill="none" stroke="#07537F" stroke-width="7" stroke-miterlimit="10" d="M310.779-465.82
					c0.416,0.384,0.648,1.008,0.648,1.863v31.014H198.642l109.795-33.157c0.191-0.056,0.376-0.096,0.552-0.128
					C309.74-466.349,310.355-466.213,310.779-465.82z"/>
				<path fill="none" stroke="#07537F" stroke-width="7" stroke-miterlimit="10" d="M323.344-337.623v29.781
					c0,3.295-2.671,5.958-5.958,5.958H174.409c-3.287,0-5.958-2.663-5.958-5.958V-414.71c0-3.406,0.416-5.182,2.647-5.91
					c0.871-0.287,2.031-0.415,3.559-0.415h142.729c1.647,0,3.143,0.671,4.214,1.751c1.08,1.08,1.744,2.56,1.744,4.207v41.706
					h-29.782c-3.287,0-5.958,2.671-5.958,5.958v23.823c0,1.647,0.664,3.136,1.743,4.215c1.08,1.08,2.567,1.743,4.215,1.743h26.127
					h3.655V-337.623z"/>
				
					<rect x="299.512" y="-361.455" fill="none" stroke="#07537F" stroke-width="7" stroke-miterlimit="10" width="32.037" height="11.916"/>
			</g>
		</g>
	</g>
	<text transform="matrix(1 0 0 1 158.2871 -219.8809)" fill="#07537F" font-family="'OpenSans-Bold'" font-size="46">WALLET</text>
	<g>
		<path fill="#07537F" stroke="#07537F" stroke-width="6" stroke-miterlimit="10" d="M896.742-449.61H729.689
			c-13.923,0-24.988,11.064-24.988,24.986v108.87c0,13.922,11.065,24.987,24.988,24.987h166.696
			c13.92,0,24.986-11.065,24.986-24.987v-108.87C921.729-438.546,910.306-449.61,896.742-449.61z M729.689-435.333h166.696
			c1.07,0,2.142,0,3.212,0.357l-86.382,66.393l-86.383-66.393C727.903-435.333,728.975-435.333,729.689-435.333z M907.45-316.11
			c0,6.068-4.64,10.708-10.708,10.708H729.689c-6.069,0-10.709-4.64-10.709-10.708v-107.086l94.235,72.462l94.234-72.104V-316.11z"
			/>
	</g>
	<text transform="matrix(1 0 0 1 706.1748 -219.8809)" fill="#07537F" font-family="'OpenSans-Bold'" font-size="46">REGISTER</text>
	<circle fill="none" stroke="#07537F" stroke-width="23" stroke-miterlimit="10" cx="249.152" cy="-338.622" r="238.376"/>
	<circle fill="none" stroke="#07537F" stroke-width="23" stroke-miterlimit="10" cx="-302.902" cy="-891.737" r="238.376"/>
	<circle fill="none" stroke="#07537F" stroke-width="23" stroke-miterlimit="10" cx="249.152" cy="-891.737" r="238.376"/>
	<circle fill="none" stroke="#07537F" stroke-width="23" stroke-miterlimit="10" cx="813.04" cy="-338.622" r="238.376"/>
</g>
</svg>
