<?xml version="1.0" encoding="utf-8"?>
<!-- Generator: Adobe Illustrator 15.1.0, SVG Export Plug-In . SVG Version: 6.00 Build 0)  -->
<!DOCTYPE svg PUBLIC "-//W3C//DTD SVG 1.1//EN" "http://www.w3.org/Graphics/SVG/1.1/DTD/svg11.dtd">
<svg version="1.1" xmlns="http://www.w3.org/2000/svg" xmlns:xlink="http://www.w3.org/1999/xlink" x="0px" y="0px" width="500px"
	 height="500px" viewBox="0 0 500 500" enable-background="new 0 0 500 500" xml:space="preserve">
<g id="Layer_2">
	<circle fill="#07537F" cx="-866.79" cy="-302.226" r="249.152"/>
	<circle fill="#07537F" cx="-866.79" cy="249.152" r="249.152"/>
	<circle fill="#07537F" cx="-314.735" cy="249.152" r="249.152"/>
	<circle fill="#07537F" cx="-314.735" cy="-302.226" r="249.152"/>
	<circle fill="#07537F" cx="249.152" cy="249.152" r="249.152"/>
</g>
<g id="Layer_1">
	<g>
		<polygon fill="#FFFFFF" points="-750.493,-416.808 -748.065,-418.265 -776.711,-446.911 -901.492,-322.616 -957.328,-378.451 
			-985.975,-350.29 -901.492,-265.809 		"/>
	</g>
	<path fill="#FFFFFF" d="M-294.213-397.971h-52.747l25.757-25.757l-20.312-20.313l-60.439,60.437l60.439,60.437l20.312-20.313
		l-25.757-25.757h52.747c19.796,0,35.914,16.11,35.914,35.914c0,19.803-16.118,35.913-35.914,35.913h-57.463v28.732h57.463
		c35.648,0,64.646-28.998,64.646-64.646C-229.567-368.974-258.564-397.971-294.213-397.971z"/>
	<path fill="#FFFFFF" d="M-835.296,209.558c11.332-5.079,19.733-13.872,19.733-28.719v-0.585c0-8.793-3.322-16.021-8.597-21.296
		c-4.884-4.884-11.722-8.4-20.318-10.159V124.77h-26.374v22.662h-10.159V124.77h-26.178v22.662h-17.778v130.502h17.778v22.663
		h26.178v-22.663h10.159v22.663h26.374v-23.834c22.077-3.712,34.971-16.021,34.971-34.774v-0.391
		C-809.507,224.014-819.666,215.223-835.296,209.558z M-891.169,175.76h24.42c11.136,0,16.997,4.103,16.997,11.721v0.392
		c0,8.01-6.643,11.917-17.973,11.917h-23.444V175.76z M-844.281,237.299c0,8.01-6.447,12.309-17.974,12.309h-28.914v-25.007h28.719
		c12.503,0,18.364,4.884,18.364,12.111v0.587H-844.281z"/>
	<g>
		<g id="XMLID_1_">
			<g>
				<rect x="-264.376" y="226.425" fill="#07537F" width="32.037" height="11.916"/>
				<path fill="#07537F" d="M-240.544,250.257v29.782c0,3.295-2.671,5.958-5.958,5.958h-142.977c-3.287,0-5.958-2.663-5.958-5.958
					V173.171c0-3.407,0.416-5.183,2.647-5.91c0.871-0.28,2.031-0.408,3.551-0.408h142.736c1.647,0,3.135,0.664,4.214,1.744
					c1.08,1.079,1.744,2.559,1.744,4.206v41.706h-29.782c-3.287,0-5.958,2.671-5.958,5.958v23.824c0,1.647,0.664,3.135,1.743,4.215
					c1.072,1.079,2.567,1.751,4.215,1.751h26.119H-240.544z"/>
				<path fill="#FFFFFF" d="M-253.108,122.06c-0.424-0.392-1.039-0.527-1.791-0.407C-254.14,121.524-253.523,121.668-253.108,122.06
					z"/>
				<path fill="#07537F" d="M-255.451,121.78c0.191-0.057,0.376-0.097,0.552-0.128c0.752-0.12,1.367,0.016,1.791,0.407
					c0.416,0.384,0.648,1.008,0.648,1.863v31.014h-112.786L-255.451,121.78z"/>
				<path fill="#FFFFFF" d="M-389.479,285.997h142.977c3.287,0,5.958-2.663,5.958-5.958v-29.782v-0.008h-3.655h-26.127
					c-1.647,0-3.135-0.664-4.215-1.743c-1.079-1.08-1.743-2.567-1.743-4.215v-23.824c0-3.287,2.671-5.958,5.958-5.958h29.782
					v-41.706c0-1.647-0.664-3.127-1.744-4.206c-1.071-1.08-2.566-1.752-4.214-1.752H-389.23c-1.527,0-2.688,0.128-3.559,0.416
					c-2.231,0.728-2.647,2.503-2.647,5.91v106.868C-395.437,283.334-392.766,285.997-389.479,285.997z M-220.423,220.467v23.832
					c0,3.295-2.671,5.958-5.958,5.958h-2.247v35.74c0,6.582-5.335,11.916-11.916,11.916h-154.893
					c-6.573,0-11.916-5.343-11.916-11.916V166.845c0-7.934,0.648-12.107,8.693-14.587l146.199-44.985
					c5.27-1.399,11.916,1.264,11.916,8.382v39.274c6.581,0.008,11.916,5.343,11.916,11.916v47.664h2.247
					C-223.094,214.509-220.423,217.18-220.423,220.467z M-232.339,238.341v-11.916h-32.037v11.916H-232.339z M-252.46,154.937
					v-31.014c0-0.855-0.232-1.479-0.648-1.863c-0.415-0.392-1.031-0.535-1.791-0.407c-0.176,0.031-0.36,0.071-0.552,0.128
					l-109.795,33.156H-252.46z"/>
			</g>
			<g>
				<path fill="none" stroke="#FFFFFF" stroke-width="6" stroke-miterlimit="10" d="M-242.288,168.597
					c-1.079-1.08-2.566-1.744-4.214-1.744h-142.736c-1.52,0-2.68,0.128-3.551,0.408"/>
				<path fill="none" stroke="#FFFFFF" stroke-width="6" stroke-miterlimit="10" d="M-240.544,250.257h-3.663h-26.119
					c-1.647,0-3.143-0.672-4.215-1.751"/>
				<path fill="none" stroke="#FFFFFF" stroke-width="6" stroke-miterlimit="10" d="M-226.381,214.509h-2.247v-47.664
					c0-6.573-5.335-11.908-11.916-11.916v-39.274c0-7.118-6.646-9.781-11.916-8.382l-146.199,44.985
					c-8.045,2.479-8.693,6.653-8.693,14.587v119.152c0,6.573,5.343,11.916,11.916,11.916h154.893
					c6.581,0,11.916-5.334,11.916-11.916v-35.74h2.247c3.287,0,5.958-2.663,5.958-5.958v-23.832
					C-220.423,217.18-223.094,214.509-226.381,214.509z"/>
				<path fill="none" stroke="#FFFFFF" stroke-width="6" stroke-miterlimit="10" d="M-253.108,122.06
					c0.416,0.384,0.648,1.008,0.648,1.863v31.014h-112.786l109.795-33.156c0.191-0.057,0.376-0.097,0.552-0.128
					C-254.147,121.532-253.532,121.668-253.108,122.06z"/>
				<path fill="none" stroke="#FFFFFF" stroke-width="6" stroke-miterlimit="10" d="M-240.544,250.257v29.782
					c0,3.295-2.671,5.958-5.958,5.958h-142.977c-3.287,0-5.958-2.663-5.958-5.958V173.171c0-3.407,0.416-5.183,2.647-5.91
					c0.871-0.288,2.031-0.416,3.559-0.416h142.729c1.647,0,3.143,0.672,4.214,1.752c1.08,1.079,1.744,2.559,1.744,4.206v41.706
					h-29.782c-3.287,0-5.958,2.671-5.958,5.958v23.824c0,1.647,0.664,3.135,1.743,4.215c1.08,1.079,2.567,1.743,4.215,1.743h26.127
					h3.655V250.257z"/>
				
					<rect x="-264.376" y="226.425" fill="none" stroke="#FFFFFF" stroke-width="6" stroke-miterlimit="10" width="32.037" height="11.916"/>
			</g>
		</g>
	</g>
	<g>
		<path fill="#FFFFFF" stroke="#FFFFFF" stroke-width="6" stroke-miterlimit="10" d="M332.854,138.272H165.802
			c-13.923,0-24.988,11.064-24.988,24.986v108.87c0,13.922,11.065,24.987,24.988,24.987h166.696
			c13.92,0,24.986-11.065,24.986-24.987v-108.87C357.842,149.337,346.418,138.272,332.854,138.272z M165.802,152.55h166.696
			c1.07,0,2.142,0,3.212,0.357L249.328,219.3l-86.383-66.393C164.016,152.55,165.087,152.55,165.802,152.55z M343.562,271.772
			c0,6.068-4.64,10.708-10.708,10.708H165.802c-6.069,0-10.709-4.64-10.709-10.708V164.687l94.235,72.462l94.234-72.104V271.772z"/>
	</g>
	<text transform="matrix(1 0 0 1 -975.6553 -183.376)" fill="#FFFFFF" font-family="'OpenSans-Bold'" font-size="46">CONFIRM</text>
	<text transform="matrix(1 0 0 1 -409.3525 -183.376)" fill="#FFFFFF" font-family="'OpenSans-Bold'" font-size="46">REFUND</text>
	<text transform="matrix(1 0 0 1 -948.6553 368.002)" fill="#FFFFFF" font-family="'OpenSans-Bold'" font-size="46">INVEST</text>
	<text transform="matrix(1 0 0 1 -405.6006 368.002)" fill="#FFFFFF" font-family="'OpenSans-Bold'" font-size="46">WALLET</text>
	<text transform="matrix(1 0 0 1 142.2871 368.002)" fill="#FFFFFF" font-family="'OpenSans-Bold'" font-size="46">REGISTER</text>
	<g>
		<polygon fill="#07537F" points="-750.493,-1557.806 -748.065,-1559.263 -776.711,-1587.909 -901.492,-1463.614 
			-957.328,-1519.449 -985.975,-1491.288 -901.492,-1406.807 		"/>
	</g>
	<text transform="matrix(1 0 0 1 -975.6553 -1324.374)" fill="#07537F" font-family="'OpenSans-Bold'" font-size="46">CONFIRM</text>
	<path fill="#07537F" d="M-294.213-1538.969h-52.747l25.757-25.757l-20.312-20.313l-60.439,60.437l60.439,60.437l20.312-20.313
		l-25.757-25.757h52.747c19.796,0,35.914,16.11,35.914,35.914c0,19.803-16.118,35.913-35.914,35.913h-57.463v28.732h57.463
		c35.648,0,64.646-28.998,64.646-64.646C-229.567-1509.972-258.564-1538.969-294.213-1538.969z"/>
	<text transform="matrix(1 0 0 1 -409.3525 -1324.374)" fill="#07537F" font-family="'OpenSans-Bold'" font-size="46">REFUND</text>
	<circle fill="none" stroke="#07537F" stroke-width="23" stroke-miterlimit="10" cx="-866.79" cy="-890" r="238.376"/>
	<path fill="#07537F" d="M-835.296-929.703c11.332-5.079,19.733-13.872,19.733-28.719v-0.585c0-8.793-3.322-16.021-8.597-21.296
		c-4.884-4.884-11.722-8.4-20.318-10.159v-24.029h-26.374v22.662h-10.159v-22.662h-26.178v22.662h-17.778v130.502h17.778v22.663
		h26.178v-22.663h10.159v22.663h26.374v-23.834c22.077-3.712,34.971-16.021,34.971-34.774v-0.391
		C-809.507-915.247-819.666-924.038-835.296-929.703z M-891.169-963.501h24.42c11.136,0,16.997,4.103,16.997,11.721v0.392
		c0,8.01-6.643,11.917-17.973,11.917h-23.444V-963.501z M-844.281-901.962c0,8.01-6.447,12.309-17.974,12.309h-28.914v-25.007
		h28.719c12.503,0,18.364,4.884,18.364,12.111v0.587H-844.281z"/>
	<text transform="matrix(1 0 0 1 -948.6553 -771.2588)" fill="#07537F" font-family="'OpenSans-Bold'" font-size="46">INVEST</text>
	<g>
		<g id="XMLID_2_">
			<g>
				<rect x="-264.376" y="-912.833" fill="#FFFFFF" width="32.037" height="11.916"/>
				<path fill="#FFFFFF" d="M-240.544-889.001v29.781c0,3.295-2.671,5.958-5.958,5.958h-142.977c-3.287,0-5.958-2.663-5.958-5.958
					v-106.868c0-3.406,0.416-5.182,2.647-5.91c0.871-0.279,2.031-0.407,3.551-0.407h142.736c1.647,0,3.135,0.663,4.214,1.743
					c1.08,1.08,1.744,2.56,1.744,4.207v41.706h-29.782c-3.287,0-5.958,2.671-5.958,5.958v23.823c0,1.647,0.664,3.136,1.743,4.215
					c1.072,1.08,2.567,1.752,4.215,1.752h26.119H-240.544z"/>
				<path fill="#07537F" d="M-254.899-1017.606c0.76-0.128,1.376,0.016,1.791,0.408
					C-253.532-1017.591-254.147-1017.727-254.899-1017.606z"/>
				<path fill="#FFFFFF" d="M-254.899-1017.606c0.752-0.12,1.367,0.016,1.791,0.408c0.416,0.384,0.648,1.008,0.648,1.863v31.014
					h-112.786l109.795-33.157C-255.26-1017.534-255.075-1017.574-254.899-1017.606z"/>
				<path fill="#07537F" d="M-389.479-853.262h142.977c3.287,0,5.958-2.663,5.958-5.958v-29.781v-0.009h-3.655h-26.127
					c-1.647,0-3.135-0.663-4.215-1.743c-1.079-1.079-1.743-2.567-1.743-4.215v-23.823c0-3.287,2.671-5.958,5.958-5.958h29.782
					v-41.706c0-1.647-0.664-3.127-1.744-4.207c-1.071-1.08-2.566-1.751-4.214-1.751H-389.23c-1.527,0-2.688,0.128-3.559,0.415
					c-2.231,0.729-2.647,2.504-2.647,5.91v106.868C-395.437-855.925-392.766-853.262-389.479-853.262z M-220.423-918.791v23.832
					c0,3.294-2.671,5.958-5.958,5.958h-2.247v35.739c0,6.582-5.335,11.916-11.916,11.916h-154.893
					c-6.573,0-11.916-5.342-11.916-11.916v-119.151c0-7.934,0.648-12.108,8.693-14.588l146.199-44.984
					c5.27-1.399,11.916,1.264,11.916,8.381v39.275c6.581,0.008,11.916,5.342,11.916,11.916v47.664h2.247
					C-223.094-924.749-220.423-922.078-220.423-918.791z M-232.339-900.917v-11.916h-32.037v11.916H-232.339z M-252.46-984.321
					v-31.014c0-0.855-0.232-1.479-0.648-1.863c-0.415-0.393-1.031-0.536-1.791-0.408c-0.176,0.032-0.36,0.072-0.552,0.128
					l-109.795,33.157H-252.46z"/>
			</g>
			<g>
				<path fill="none" stroke="#07537F" stroke-width="7" stroke-miterlimit="10" d="M-253.108-1017.198
					c-0.415-0.393-1.031-0.536-1.791-0.408"/>
				<path fill="none" stroke="#07537F" stroke-width="7" stroke-miterlimit="10" d="M-242.288-970.662
					c-1.079-1.08-2.566-1.743-4.214-1.743h-142.736c-1.52,0-2.68,0.128-3.551,0.407"/>
				<path fill="none" stroke="#07537F" stroke-width="7" stroke-miterlimit="10" d="M-240.544-889.001h-3.663h-26.119
					c-1.647,0-3.143-0.672-4.215-1.752"/>
				<path fill="none" stroke="#07537F" stroke-width="7" stroke-miterlimit="10" d="M-226.381-924.749h-2.247v-47.664
					c0-6.574-5.335-11.908-11.916-11.916v-39.275c0-7.117-6.646-9.78-11.916-8.381l-146.199,44.984
					c-8.045,2.479-8.693,6.654-8.693,14.588v119.151c0,6.574,5.343,11.916,11.916,11.916h154.893
					c6.581,0,11.916-5.334,11.916-11.916v-35.739h2.247c3.287,0,5.958-2.664,5.958-5.958v-23.832
					C-220.423-922.078-223.094-924.749-226.381-924.749z"/>
				<path fill="none" stroke="#07537F" stroke-width="7" stroke-miterlimit="10" d="M-253.108-1017.198
					c0.416,0.384,0.648,1.008,0.648,1.863v31.014h-112.786l109.795-33.157c0.191-0.056,0.376-0.096,0.552-0.128
					C-254.147-1017.727-253.532-1017.591-253.108-1017.198z"/>
				<path fill="none" stroke="#07537F" stroke-width="7" stroke-miterlimit="10" d="M-240.544-889.001v29.781
					c0,3.295-2.671,5.958-5.958,5.958h-142.977c-3.287,0-5.958-2.663-5.958-5.958v-106.868c0-3.406,0.416-5.182,2.647-5.91
					c0.871-0.287,2.031-0.415,3.559-0.415h142.729c1.647,0,3.143,0.671,4.214,1.751c1.08,1.08,1.744,2.56,1.744,4.207v41.706
					h-29.782c-3.287,0-5.958,2.671-5.958,5.958v23.823c0,1.647,0.664,3.136,1.743,4.215c1.08,1.08,2.567,1.743,4.215,1.743h26.127
					h3.655V-889.001z"/>
				
					<rect x="-264.376" y="-912.833" fill="none" stroke="#07537F" stroke-width="7" stroke-miterlimit="10" width="32.037" height="11.916"/>
			</g>
		</g>
	</g>
	<text transform="matrix(1 0 0 1 -405.6006 -771.2588)" fill="#07537F" font-family="'OpenSans-Bold'" font-size="46">WALLET</text>
	<g>
		<path fill="#07537F" stroke="#07537F" stroke-width="6" stroke-miterlimit="10" d="M332.854-1000.988H165.802
			c-13.923,0-24.988,11.064-24.988,24.986v108.87c0,13.922,11.065,24.987,24.988,24.987h166.696
			c13.92,0,24.986-11.065,24.986-24.987v-108.87C357.842-989.924,346.418-1000.988,332.854-1000.988z M165.802-986.711h166.696
			c1.07,0,2.142,0,3.212,0.357l-86.382,66.393l-86.383-66.393C164.016-986.711,165.087-986.711,165.802-986.711z M343.562-867.488
			c0,6.068-4.64,10.708-10.708,10.708H165.802c-6.069,0-10.709-4.64-10.709-10.708v-107.086l94.235,72.462l94.234-72.104V-867.488z"
			/>
	</g>
	<text transform="matrix(1 0 0 1 142.2871 -771.2588)" fill="#07537F" font-family="'OpenSans-Bold'" font-size="46">REGISTER</text>
	<circle fill="none" stroke="#07537F" stroke-width="23" stroke-miterlimit="10" cx="-314.735" cy="-890" r="238.376"/>
	<circle fill="none" stroke="#07537F" stroke-width="23" stroke-miterlimit="10" cx="-866.79" cy="-1443.115" r="238.376"/>
	<circle fill="none" stroke="#07537F" stroke-width="23" stroke-miterlimit="10" cx="-314.735" cy="-1443.115" r="238.376"/>
	<circle fill="none" stroke="#07537F" stroke-width="23" stroke-miterlimit="10" cx="249.152" cy="-890" r="238.376"/>
</g>
</svg>
