<?xml version="1.0" encoding="utf-8"?>
<!-- Generator: Adobe Illustrator 15.1.0, SVG Export Plug-In . SVG Version: 6.00 Build 0)  -->
<!DOCTYPE svg PUBLIC "-//W3C//DTD SVG 1.1//EN" "http://www.w3.org/Graphics/SVG/1.1/DTD/svg11.dtd">
<svg version="1.1" xmlns="http://www.w3.org/2000/svg" xmlns:xlink="http://www.w3.org/1999/xlink" x="0px" y="0px" width="500px"
	 height="500px" viewBox="0 0 500 500" enable-background="new 0 0 500 500" xml:space="preserve">
<g id="Layer_2">
	<circle fill="#07537F" cx="-302.902" cy="837.035" r="249.152"/>
	<circle fill="#07537F" cx="-302.902" cy="1388.413" r="249.152"/>
	<circle fill="#07537F" cx="249.152" cy="1388.413" r="249.152"/>
	<circle fill="#07537F" cx="249.152" cy="837.035" r="249.152"/>
	<circle fill="#07537F" cx="813.04" cy="1388.413" r="249.152"/>
</g>
<g id="Layer_1">
	<g>
		<polygon fill="#FFFFFF" points="-186.605,722.453 -184.178,720.996 -212.823,692.35 -337.604,816.645 -393.44,760.81 
			-422.087,788.971 -337.604,873.452 		"/>
	</g>
	<path fill="#FFFFFF" d="M269.675,741.29h-52.747l25.757-25.757l-20.312-20.313l-60.439,60.437l60.439,60.437l20.312-20.313
		l-25.757-25.757h52.747c19.796,0,35.914,16.11,35.914,35.914c0,19.803-16.118,35.913-35.914,35.913h-57.463v28.732h57.463
		c35.648,0,64.646-28.998,64.646-64.646C334.32,770.287,305.323,741.29,269.675,741.29z"/>
	<path fill="#FFFFFF" d="M-271.408,1348.818c11.332-5.079,19.733-13.872,19.733-28.719v-0.585c0-8.793-3.322-16.021-8.597-21.296
		c-4.884-4.884-11.722-8.4-20.318-10.159v-24.029h-26.374v22.662h-10.159v-22.662h-26.178v22.662h-17.778v130.502h17.778v22.663
		h26.178v-22.663h10.159v22.663h26.374v-23.834c22.077-3.712,34.971-16.021,34.971-34.774v-0.391
		C-245.619,1363.274-255.778,1354.483-271.408,1348.818z M-327.281,1315.021h24.42c11.136,0,16.997,4.103,16.997,11.721v0.392
		c0,8.01-6.643,11.917-17.973,11.917h-23.444V1315.021z M-280.394,1376.56c0,8.01-6.447,12.309-17.974,12.309h-28.914v-25.007
		h28.719c12.503,0,18.364,4.884,18.364,12.111v0.587H-280.394z"/>
	<g>
		<g id="XMLID_1_">
			<g>
				<rect x="299.512" y="1365.686" fill="#07537F" width="32.037" height="11.916"/>
				<path fill="#07537F" d="M323.344,1389.518v29.782c0,3.295-2.671,5.958-5.958,5.958H174.409c-3.287,0-5.958-2.663-5.958-5.958
					v-106.868c0-3.407,0.416-5.183,2.647-5.91c0.871-0.28,2.031-0.408,3.551-0.408h142.736c1.647,0,3.135,0.664,4.214,1.744
					c1.08,1.079,1.744,2.559,1.744,4.206v41.706h-29.782c-3.287,0-5.958,2.671-5.958,5.958v23.824c0,1.647,0.664,3.135,1.743,4.215
					c1.072,1.079,2.567,1.751,4.215,1.751h26.119H323.344z"/>
				<path fill="#FFFFFF" d="M310.779,1261.32c-0.424-0.392-1.039-0.527-1.791-0.407
					C309.748,1260.785,310.364,1260.929,310.779,1261.32z"/>
				<path fill="#07537F" d="M308.437,1261.041c0.191-0.057,0.376-0.097,0.552-0.128c0.752-0.12,1.367,0.016,1.791,0.407
					c0.416,0.384,0.648,1.008,0.648,1.863v31.014H198.642L308.437,1261.041z"/>
				<path fill="#FFFFFF" d="M174.409,1425.258h142.977c3.287,0,5.958-2.663,5.958-5.958v-29.782v-0.008h-3.655h-26.127
					c-1.647,0-3.135-0.664-4.215-1.743c-1.079-1.08-1.743-2.567-1.743-4.215v-23.824c0-3.287,2.671-5.958,5.958-5.958h29.782
					v-41.706c0-1.647-0.664-3.127-1.744-4.206c-1.071-1.08-2.566-1.752-4.214-1.752H174.657c-1.527,0-2.688,0.128-3.559,0.416
					c-2.231,0.728-2.647,2.503-2.647,5.91V1419.3C168.451,1422.595,171.122,1425.258,174.409,1425.258z M343.465,1359.728v23.832
					c0,3.295-2.671,5.958-5.958,5.958h-2.247v35.74c0,6.582-5.335,11.916-11.916,11.916H168.451
					c-6.573,0-11.916-5.343-11.916-11.916v-119.152c0-7.934,0.648-12.107,8.693-14.587l146.199-44.985
					c5.27-1.399,11.916,1.264,11.916,8.382v39.274c6.581,0.008,11.916,5.343,11.916,11.916v47.664h2.247
					C340.794,1353.77,343.465,1356.44,343.465,1359.728z M331.549,1377.602v-11.916h-32.037v11.916H331.549z M311.428,1294.197
					v-31.014c0-0.855-0.232-1.479-0.648-1.863c-0.415-0.392-1.031-0.535-1.791-0.407c-0.176,0.031-0.36,0.071-0.552,0.128
					l-109.795,33.156H311.428z"/>
			</g>
			<g>
				<path fill="none" stroke="#FFFFFF" stroke-width="6" stroke-miterlimit="10" d="M321.6,1307.857
					c-1.079-1.08-2.566-1.744-4.214-1.744H174.649c-1.52,0-2.68,0.128-3.551,0.408"/>
				<path fill="none" stroke="#FFFFFF" stroke-width="6" stroke-miterlimit="10" d="M323.344,1389.518h-3.663h-26.119
					c-1.647,0-3.143-0.672-4.215-1.751"/>
				<path fill="none" stroke="#FFFFFF" stroke-width="6" stroke-miterlimit="10" d="M337.507,1353.77h-2.247v-47.664
					c0-6.573-5.335-11.908-11.916-11.916v-39.274c0-7.118-6.646-9.781-11.916-8.382l-146.199,44.985
					c-8.045,2.479-8.693,6.653-8.693,14.587v119.152c0,6.573,5.343,11.916,11.916,11.916h154.893
					c6.581,0,11.916-5.334,11.916-11.916v-35.74h2.247c3.287,0,5.958-2.663,5.958-5.958v-23.832
					C343.465,1356.44,340.794,1353.77,337.507,1353.77z"/>
				<path fill="none" stroke="#FFFFFF" stroke-width="6" stroke-miterlimit="10" d="M310.779,1261.32
					c0.416,0.384,0.648,1.008,0.648,1.863v31.014H198.642l109.795-33.156c0.191-0.057,0.376-0.097,0.552-0.128
					C309.74,1260.793,310.355,1260.929,310.779,1261.32z"/>
				<path fill="none" stroke="#FFFFFF" stroke-width="6" stroke-miterlimit="10" d="M323.344,1389.518v29.782
					c0,3.295-2.671,5.958-5.958,5.958H174.409c-3.287,0-5.958-2.663-5.958-5.958v-106.868c0-3.407,0.416-5.183,2.647-5.91
					c0.871-0.288,2.031-0.416,3.559-0.416h142.729c1.647,0,3.143,0.672,4.214,1.752c1.08,1.079,1.744,2.559,1.744,4.206v41.706
					h-29.782c-3.287,0-5.958,2.671-5.958,5.958v23.824c0,1.647,0.664,3.135,1.743,4.215c1.08,1.079,2.567,1.743,4.215,1.743h26.127
					h3.655V1389.518z"/>
				
					<rect x="299.512" y="1365.686" fill="none" stroke="#FFFFFF" stroke-width="6" stroke-miterlimit="10" width="32.037" height="11.916"/>
			</g>
		</g>
	</g>
	<g>
		<path fill="#FFFFFF" stroke="#FFFFFF" stroke-width="6" stroke-miterlimit="10" d="M896.742,1277.533H729.689
			c-13.923,0-24.988,11.064-24.988,24.986v108.87c0,13.922,11.065,24.987,24.988,24.987h166.696
			c13.92,0,24.986-11.065,24.986-24.987v-108.87C921.729,1288.598,910.306,1277.533,896.742,1277.533z M729.689,1291.811h166.696
			c1.07,0,2.142,0,3.212,0.357l-86.382,66.393l-86.383-66.393C727.903,1291.811,728.975,1291.811,729.689,1291.811z
			 M907.45,1411.033c0,6.068-4.64,10.708-10.708,10.708H729.689c-6.069,0-10.709-4.64-10.709-10.708v-107.086l94.235,72.462
			l94.234-72.104V1411.033z"/>
	</g>
	<text transform="matrix(1 0 0 1 -411.7676 955.8848)" fill="#FFFFFF" font-family="'OpenSans-Bold'" font-size="46">CONFIRM</text>
	<text transform="matrix(1 0 0 1 154.5352 955.8848)" fill="#FFFFFF" font-family="'OpenSans-Bold'" font-size="46">REFUND</text>
	<text transform="matrix(1 0 0 1 -384.7676 1507.2627)" fill="#FFFFFF" font-family="'OpenSans-Bold'" font-size="46">INVEST</text>
	<text transform="matrix(1 0 0 1 158.2871 1507.2627)" fill="#FFFFFF" font-family="'OpenSans-Bold'" font-size="46">WALLET</text>
	<text transform="matrix(1 0 0 1 706.1748 1507.2627)" fill="#FFFFFF" font-family="'OpenSans-Bold'" font-size="46">REGISTER</text>
	<g>
		<polygon fill="#07537F" points="-186.605,-418.545 -184.178,-420.002 -212.823,-448.648 -337.604,-324.354 -393.44,-380.188 
			-422.087,-352.027 -337.604,-267.546 		"/>
	</g>
	<text transform="matrix(1 0 0 1 -411.7676 -185.1133)" fill="#07537F" font-family="'OpenSans-Bold'" font-size="46">CONFIRM</text>
	<path fill="#07537F" d="M269.675-399.708h-52.747l25.757-25.757l-20.312-20.313l-60.439,60.437l60.439,60.437l20.312-20.313
		l-25.757-25.757h52.747c19.796,0,35.914,16.11,35.914,35.914c0,19.803-16.118,35.913-35.914,35.913h-57.463v28.732h57.463
		c35.648,0,64.646-28.998,64.646-64.646C334.32-370.711,305.323-399.708,269.675-399.708z"/>
	<text transform="matrix(1 0 0 1 154.5352 -185.1133)" fill="#07537F" font-family="'OpenSans-Bold'" font-size="46">REFUND</text>
	<circle fill="none" stroke="#07537F" stroke-width="23" stroke-miterlimit="10" cx="-302.902" cy="249.261" r="238.376"/>
	<path fill="#07537F" d="M-271.408,209.558c11.332-5.079,19.733-13.872,19.733-28.719v-0.585c0-8.793-3.322-16.021-8.597-21.296
		c-4.884-4.884-11.722-8.4-20.318-10.159V124.77h-26.374v22.662h-10.159V124.77h-26.178v22.662h-17.778v130.502h17.778v22.663
		h26.178v-22.663h10.159v22.663h26.374v-23.834c22.077-3.712,34.971-16.021,34.971-34.774v-0.391
		C-245.619,224.014-255.778,215.223-271.408,209.558z M-327.281,175.76h24.42c11.136,0,16.997,4.103,16.997,11.721v0.392
		c0,8.01-6.643,11.917-17.973,11.917h-23.444V175.76z M-280.394,237.299c0,8.01-6.447,12.309-17.974,12.309h-28.914v-25.007h28.719
		c12.503,0,18.364,4.884,18.364,12.111v0.587H-280.394z"/>
	<text transform="matrix(1 0 0 1 -384.7676 368.002)" fill="#07537F" font-family="'OpenSans-Bold'" font-size="46">INVEST</text>
	<g>
		<g id="XMLID_2_">
			<g>
				<rect x="299.512" y="226.428" fill="#FFFFFF" width="32.037" height="11.916"/>
				<path fill="#FFFFFF" d="M323.344,250.26v29.781c0,3.295-2.671,5.958-5.958,5.958H174.409c-3.287,0-5.958-2.663-5.958-5.958
					V173.173c0-3.406,0.416-5.182,2.647-5.91c0.871-0.279,2.031-0.407,3.551-0.407h142.736c1.647,0,3.135,0.663,4.214,1.743
					c1.08,1.08,1.744,2.56,1.744,4.207v41.706h-29.782c-3.287,0-5.958,2.671-5.958,5.958v23.823c0,1.647,0.664,3.136,1.743,4.215
					c1.072,1.08,2.567,1.752,4.215,1.752h26.119H323.344z"/>
				<path fill="#07537F" d="M308.988,121.654c0.76-0.128,1.376,0.016,1.791,0.408C310.355,121.67,309.74,121.534,308.988,121.654z"
					/>
				<path fill="#FFFFFF" d="M308.988,121.654c0.752-0.12,1.367,0.016,1.791,0.408c0.416,0.384,0.648,1.008,0.648,1.863v31.014
					H198.642l109.795-33.157C308.628,121.727,308.812,121.687,308.988,121.654z"/>
				<path fill="#07537F" d="M174.409,285.999h142.977c3.287,0,5.958-2.663,5.958-5.958V250.26v-0.009h-3.655h-26.127
					c-1.647,0-3.135-0.663-4.215-1.743c-1.079-1.079-1.743-2.567-1.743-4.215V220.47c0-3.287,2.671-5.958,5.958-5.958h29.782
					v-41.706c0-1.647-0.664-3.127-1.744-4.207c-1.071-1.08-2.566-1.751-4.214-1.751H174.657c-1.527,0-2.688,0.128-3.559,0.415
					c-2.231,0.729-2.647,2.504-2.647,5.91v106.868C168.451,283.336,171.122,285.999,174.409,285.999z M343.465,220.47v23.832
					c0,3.294-2.671,5.958-5.958,5.958h-2.247v35.739c0,6.582-5.335,11.916-11.916,11.916H168.451
					c-6.573,0-11.916-5.342-11.916-11.916V166.848c0-7.934,0.648-12.108,8.693-14.588l146.199-44.984
					c5.27-1.399,11.916,1.264,11.916,8.381v39.275c6.581,0.008,11.916,5.342,11.916,11.916v47.664h2.247
					C340.794,214.512,343.465,217.183,343.465,220.47z M331.549,238.344v-11.916h-32.037v11.916H331.549z M311.428,154.939v-31.014
					c0-0.855-0.232-1.479-0.648-1.863c-0.415-0.393-1.031-0.536-1.791-0.408c-0.176,0.032-0.36,0.072-0.552,0.128l-109.795,33.157
					H311.428z"/>
			</g>
			<g>
				<path fill="none" stroke="#07537F" stroke-width="7" stroke-miterlimit="10" d="M310.779,122.062
					c-0.415-0.393-1.031-0.536-1.791-0.408"/>
				<path fill="none" stroke="#07537F" stroke-width="7" stroke-miterlimit="10" d="M321.6,168.599
					c-1.079-1.08-2.566-1.743-4.214-1.743H174.649c-1.52,0-2.68,0.128-3.551,0.407"/>
				<path fill="none" stroke="#07537F" stroke-width="7" stroke-miterlimit="10" d="M323.344,250.26h-3.663h-26.119
					c-1.647,0-3.143-0.672-4.215-1.752"/>
				<path fill="none" stroke="#07537F" stroke-width="7" stroke-miterlimit="10" d="M337.507,214.512h-2.247v-47.664
					c0-6.574-5.335-11.908-11.916-11.916v-39.275c0-7.117-6.646-9.78-11.916-8.381L165.229,152.26
					c-8.045,2.479-8.693,6.654-8.693,14.588v119.151c0,6.574,5.343,11.916,11.916,11.916h154.893
					c6.581,0,11.916-5.334,11.916-11.916V250.26h2.247c3.287,0,5.958-2.664,5.958-5.958V220.47
					C343.465,217.183,340.794,214.512,337.507,214.512z"/>
				<path fill="none" stroke="#07537F" stroke-width="7" stroke-miterlimit="10" d="M310.779,122.062
					c0.416,0.384,0.648,1.008,0.648,1.863v31.014H198.642l109.795-33.157c0.191-0.056,0.376-0.096,0.552-0.128
					C309.74,121.534,310.355,121.67,310.779,122.062z"/>
				<path fill="none" stroke="#07537F" stroke-width="7" stroke-miterlimit="10" d="M323.344,250.26v29.781
					c0,3.295-2.671,5.958-5.958,5.958H174.409c-3.287,0-5.958-2.663-5.958-5.958V173.173c0-3.406,0.416-5.182,2.647-5.91
					c0.871-0.287,2.031-0.415,3.559-0.415h142.729c1.647,0,3.143,0.671,4.214,1.751c1.08,1.08,1.744,2.56,1.744,4.207v41.706
					h-29.782c-3.287,0-5.958,2.671-5.958,5.958v23.823c0,1.647,0.664,3.136,1.743,4.215c1.08,1.08,2.567,1.743,4.215,1.743h26.127
					h3.655V250.26z"/>
				
					<rect x="299.512" y="226.428" fill="none" stroke="#07537F" stroke-width="7" stroke-miterlimit="10" width="32.037" height="11.916"/>
			</g>
		</g>
	</g>
	<text transform="matrix(1 0 0 1 158.2871 368.002)" fill="#07537F" font-family="'OpenSans-Bold'" font-size="46">WALLET</text>
	<g>
		<path fill="#07537F" stroke="#07537F" stroke-width="6" stroke-miterlimit="10" d="M896.742,138.272H729.689
			c-13.923,0-24.988,11.064-24.988,24.986v108.87c0,13.922,11.065,24.987,24.988,24.987h166.696
			c13.92,0,24.986-11.065,24.986-24.987v-108.87C921.729,149.337,910.306,138.272,896.742,138.272z M729.689,152.55h166.696
			c1.07,0,2.142,0,3.212,0.357L813.216,219.3l-86.383-66.393C727.903,152.55,728.975,152.55,729.689,152.55z M907.45,271.772
			c0,6.068-4.64,10.708-10.708,10.708H729.689c-6.069,0-10.709-4.64-10.709-10.708V164.687l94.235,72.462l94.234-72.104V271.772z"/>
	</g>
	<text transform="matrix(1 0 0 1 706.1748 368.002)" fill="#07537F" font-family="'OpenSans-Bold'" font-size="46">REGISTER</text>
	<circle fill="none" stroke="#07537F" stroke-width="23" stroke-miterlimit="10" cx="249.152" cy="249.261" r="238.376"/>
	<circle fill="none" stroke="#07537F" stroke-width="23" stroke-miterlimit="10" cx="-302.902" cy="-303.854" r="238.376"/>
	<circle fill="none" stroke="#07537F" stroke-width="23" stroke-miterlimit="10" cx="249.152" cy="-303.854" r="238.376"/>
	<circle fill="none" stroke="#07537F" stroke-width="23" stroke-miterlimit="10" cx="813.04" cy="249.261" r="238.376"/>
</g>
</svg>
